<mxfile host="app.diagrams.net" modified="2021-06-15T05:39:38.282Z" agent="5.0 (Windows NT 10.0; Win64; x64) AppleWebKit/537.36 (KHTML, like Gecko) Chrome/91.0.4472.101 Safari/537.36" etag="u41K-ixxyz25VJ8mJ-OU" version="14.7.8" type="github" pages="2">
  <diagram id="7PRStfoKHMYqZS4BXg-o" name="Page-1">
    <mxGraphModel dx="1865" dy="1754" grid="1" gridSize="10" guides="1" tooltips="1" connect="1" arrows="1" fold="1" page="1" pageScale="1" pageWidth="827" pageHeight="1169" math="0" shadow="0">
      <root>
        <mxCell id="0" />
        <mxCell id="1" parent="0" />
        <mxCell id="AwdpcZapUi808MqYRnDw-2" value="Регистратор сидящий в регистратуре афк&lt;br&gt;" style="shape=umlActor;verticalLabelPosition=bottom;verticalAlign=top;html=1;outlineConnect=0;" vertex="1" parent="1">
          <mxGeometry x="100" y="300" width="30" height="60" as="geometry" />
        </mxCell>
        <mxCell id="AwdpcZapUi808MqYRnDw-3" value="Программа автоматизации работы регистратуры больницы" style="ellipse;whiteSpace=wrap;html=1;" vertex="1" parent="1">
          <mxGeometry x="220" y="290" width="130" height="90" as="geometry" />
        </mxCell>
        <mxCell id="AwdpcZapUi808MqYRnDw-4" value="" style="endArrow=none;html=1;entryX=0;entryY=0.5;entryDx=0;entryDy=0;exitX=0.5;exitY=0.5;exitDx=0;exitDy=0;exitPerimeter=0;" edge="1" parent="1" source="AwdpcZapUi808MqYRnDw-2" target="AwdpcZapUi808MqYRnDw-3">
          <mxGeometry width="50" height="50" relative="1" as="geometry">
            <mxPoint x="180" y="390" as="sourcePoint" />
            <mxPoint x="230" y="340" as="targetPoint" />
          </mxGeometry>
        </mxCell>
        <mxCell id="AwdpcZapUi808MqYRnDw-5" value="Include" style="endArrow=open;endSize=12;dashed=1;html=1;exitX=0.5;exitY=0;exitDx=0;exitDy=0;entryX=0.5;entryY=1;entryDx=0;entryDy=0;" edge="1" parent="1" target="AwdpcZapUi808MqYRnDw-6" source="AwdpcZapUi808MqYRnDw-3">
          <mxGeometry width="160" relative="1" as="geometry">
            <mxPoint x="300" y="290" as="sourcePoint" />
            <mxPoint x="200" y="200" as="targetPoint" />
          </mxGeometry>
        </mxCell>
        <mxCell id="AwdpcZapUi808MqYRnDw-6" value="Вход" style="ellipse;whiteSpace=wrap;html=1;" vertex="1" parent="1">
          <mxGeometry x="60" y="110" width="120" height="80" as="geometry" />
        </mxCell>
        <mxCell id="AwdpcZapUi808MqYRnDw-7" value="Подтверждение по номеру и паролю карты пропуска" style="ellipse;whiteSpace=wrap;html=1;" vertex="1" parent="1">
          <mxGeometry x="-10" y="-70" width="120" height="80" as="geometry" />
        </mxCell>
        <mxCell id="AwdpcZapUi808MqYRnDw-8" value="Extends" style="endArrow=open;endSize=16;endFill=0;html=1;entryX=0.5;entryY=0;entryDx=0;entryDy=0;exitX=0.796;exitY=0.911;exitDx=0;exitDy=0;exitPerimeter=0;dashed=1;" edge="1" parent="1" source="AwdpcZapUi808MqYRnDw-7">
          <mxGeometry width="160" relative="1" as="geometry">
            <mxPoint x="-18" y="28" as="sourcePoint" />
            <mxPoint x="120" y="110" as="targetPoint" />
          </mxGeometry>
        </mxCell>
        <mxCell id="AwdpcZapUi808MqYRnDw-9" value="Include" style="endArrow=open;endSize=12;dashed=1;html=1;exitX=0.5;exitY=0;exitDx=0;exitDy=0;entryX=0.5;entryY=1;entryDx=0;entryDy=0;" edge="1" parent="1" source="AwdpcZapUi808MqYRnDw-3" target="AwdpcZapUi808MqYRnDw-10">
          <mxGeometry width="160" relative="1" as="geometry">
            <mxPoint x="290" y="300" as="sourcePoint" />
            <mxPoint x="290" y="120" as="targetPoint" />
          </mxGeometry>
        </mxCell>
        <mxCell id="AwdpcZapUi808MqYRnDw-10" value="Регистрация пациента на приём к врачу" style="ellipse;whiteSpace=wrap;html=1;" vertex="1" parent="1">
          <mxGeometry x="210" y="120" width="120" height="80" as="geometry" />
        </mxCell>
        <mxCell id="AwdpcZapUi808MqYRnDw-11" value="Подключение к БД" style="ellipse;whiteSpace=wrap;html=1;" vertex="1" parent="1">
          <mxGeometry x="170" y="420" width="90" height="50" as="geometry" />
        </mxCell>
        <mxCell id="AwdpcZapUi808MqYRnDw-12" value="Extends" style="endArrow=open;endSize=16;endFill=0;html=1;exitX=0.5;exitY=0;exitDx=0;exitDy=0;dashed=1;entryX=0.5;entryY=1;entryDx=0;entryDy=0;" edge="1" parent="1" source="AwdpcZapUi808MqYRnDw-11">
          <mxGeometry width="160" relative="1" as="geometry">
            <mxPoint x="185.51999999999998" y="-117.11999999999989" as="sourcePoint" />
            <mxPoint x="270" y="380" as="targetPoint" />
          </mxGeometry>
        </mxCell>
        <mxCell id="AwdpcZapUi808MqYRnDw-15" value="Заполнение данных по карте пациента" style="ellipse;whiteSpace=wrap;html=1;" vertex="1" parent="1">
          <mxGeometry x="120" y="-20" width="120" height="80" as="geometry" />
        </mxCell>
        <mxCell id="AwdpcZapUi808MqYRnDw-16" value="Extends" style="endArrow=open;endSize=16;endFill=0;html=1;entryX=0.5;entryY=0;entryDx=0;entryDy=0;exitX=0.5;exitY=1;exitDx=0;exitDy=0;dashed=1;" edge="1" parent="1" source="AwdpcZapUi808MqYRnDw-15" target="AwdpcZapUi808MqYRnDw-10">
          <mxGeometry width="160" relative="1" as="geometry">
            <mxPoint x="95.51999999999998" y="12.88000000000011" as="sourcePoint" />
            <mxPoint x="130" y="120" as="targetPoint" />
          </mxGeometry>
        </mxCell>
        <mxCell id="AwdpcZapUi808MqYRnDw-17" value="Заполнение данных врача для оформления направления" style="ellipse;whiteSpace=wrap;html=1;" vertex="1" parent="1">
          <mxGeometry x="294" y="-20" width="120" height="80" as="geometry" />
        </mxCell>
        <mxCell id="AwdpcZapUi808MqYRnDw-18" value="Extends" style="endArrow=open;endSize=16;endFill=0;html=1;entryX=0.5;entryY=0;entryDx=0;entryDy=0;exitX=0.5;exitY=1;exitDx=0;exitDy=0;dashed=1;" edge="1" parent="1" source="AwdpcZapUi808MqYRnDw-17" target="AwdpcZapUi808MqYRnDw-10">
          <mxGeometry width="160" relative="1" as="geometry">
            <mxPoint x="190" y="70" as="sourcePoint" />
            <mxPoint x="280" y="130" as="targetPoint" />
          </mxGeometry>
        </mxCell>
        <mxCell id="AwdpcZapUi808MqYRnDw-19" value="Печать направления" style="ellipse;whiteSpace=wrap;html=1;" vertex="1" parent="1">
          <mxGeometry x="210" y="-140" width="120" height="80" as="geometry" />
        </mxCell>
        <mxCell id="AwdpcZapUi808MqYRnDw-20" value="Extends" style="endArrow=open;endSize=16;endFill=0;html=1;exitX=0.5;exitY=1;exitDx=0;exitDy=0;dashed=1;" edge="1" parent="1" source="AwdpcZapUi808MqYRnDw-19">
          <mxGeometry width="160" relative="1" as="geometry">
            <mxPoint x="190" y="70" as="sourcePoint" />
            <mxPoint x="270" y="120" as="targetPoint" />
          </mxGeometry>
        </mxCell>
        <mxCell id="IZnVJReFb6FwB4K-2uF8-1" value="Выдача талона на взятие анализов" style="ellipse;whiteSpace=wrap;html=1;" vertex="1" parent="1">
          <mxGeometry x="370" y="180" width="120" height="80" as="geometry" />
        </mxCell>
        <mxCell id="IZnVJReFb6FwB4K-2uF8-2" value="Include" style="endArrow=open;endSize=12;dashed=1;html=1;exitX=1;exitY=0;exitDx=0;exitDy=0;entryX=0;entryY=1;entryDx=0;entryDy=0;" edge="1" parent="1" source="AwdpcZapUi808MqYRnDw-3" target="IZnVJReFb6FwB4K-2uF8-1">
          <mxGeometry width="160" relative="1" as="geometry">
            <mxPoint x="295" y="300" as="sourcePoint" />
            <mxPoint x="280" y="210" as="targetPoint" />
          </mxGeometry>
        </mxCell>
        <mxCell id="IZnVJReFb6FwB4K-2uF8-3" value="Подключение к терминалу" style="ellipse;whiteSpace=wrap;html=1;" vertex="1" parent="1">
          <mxGeometry x="530" y="130" width="120" height="80" as="geometry" />
        </mxCell>
        <mxCell id="IZnVJReFb6FwB4K-2uF8-4" value="Extends" style="endArrow=open;endSize=16;endFill=0;html=1;entryX=0.5;entryY=0;entryDx=0;entryDy=0;exitX=0.5;exitY=1;exitDx=0;exitDy=0;dashed=1;" edge="1" parent="1" source="IZnVJReFb6FwB4K-2uF8-3">
          <mxGeometry width="160" relative="1" as="geometry">
            <mxPoint x="410" y="160" as="sourcePoint" />
            <mxPoint x="490" y="210" as="targetPoint" />
          </mxGeometry>
        </mxCell>
        <mxCell id="IZnVJReFb6FwB4K-2uF8-5" value="Запрос талона через терминал и его печать" style="ellipse;whiteSpace=wrap;html=1;" vertex="1" parent="1">
          <mxGeometry x="580" y="250" width="120" height="80" as="geometry" />
        </mxCell>
        <mxCell id="IZnVJReFb6FwB4K-2uF8-7" value="Extends" style="endArrow=open;endSize=16;endFill=0;html=1;exitX=0.333;exitY=0;exitDx=0;exitDy=0;dashed=1;exitPerimeter=0;" edge="1" parent="1" source="IZnVJReFb6FwB4K-2uF8-5" target="IZnVJReFb6FwB4K-2uF8-3">
          <mxGeometry width="160" relative="1" as="geometry">
            <mxPoint x="610" y="210" as="sourcePoint" />
            <mxPoint x="500" y="220" as="targetPoint" />
          </mxGeometry>
        </mxCell>
      </root>
    </mxGraphModel>
  </diagram>
  <diagram id="JuGWuGwmp94plY-IlGr5" name="Page-2">
    <mxGraphModel dx="1038" dy="585" grid="1" gridSize="10" guides="1" tooltips="1" connect="1" arrows="1" fold="1" page="1" pageScale="1" pageWidth="827" pageHeight="1169" math="0" shadow="0">
      <root>
        <mxCell id="XdsVn_3tybLZgV9FLbHw-0" />
        <mxCell id="XdsVn_3tybLZgV9FLbHw-1" parent="XdsVn_3tybLZgV9FLbHw-0" />
        <mxCell id="XdsVn_3tybLZgV9FLbHw-2" value="ApplicationDbContext" style="swimlane;fontStyle=1;align=center;verticalAlign=top;childLayout=stackLayout;horizontal=1;startSize=26;horizontalStack=0;resizeParent=1;resizeParentMax=0;resizeLast=0;collapsible=1;marginBottom=0;fontColor=none;" vertex="1" parent="XdsVn_3tybLZgV9FLbHw-1">
          <mxGeometry x="117.85" y="640" width="190" height="130" as="geometry" />
        </mxCell>
        <mxCell id="XdsVn_3tybLZgV9FLbHw-3" value="+ news : DbSet&lt;News&gt;&#xa;+ Ips: DbSet&lt;Ip&gt;&#xa;+ Votes: DbSet&lt;Vote&gt;&#xa;+Commnets: DbSet&lt;Comment&gt;" style="text;strokeColor=none;fillColor=none;align=left;verticalAlign=top;spacingLeft=4;spacingRight=4;overflow=hidden;rotatable=0;points=[[0,0.5],[1,0.5]];portConstraint=eastwest;" vertex="1" parent="XdsVn_3tybLZgV9FLbHw-2">
          <mxGeometry y="26" width="190" height="74" as="geometry" />
        </mxCell>
        <mxCell id="XdsVn_3tybLZgV9FLbHw-4" value="" style="line;strokeWidth=1;fillColor=none;align=left;verticalAlign=middle;spacingTop=-1;spacingLeft=3;spacingRight=3;rotatable=0;labelPosition=right;points=[];portConstraint=eastwest;" vertex="1" parent="XdsVn_3tybLZgV9FLbHw-2">
          <mxGeometry y="100" width="190" height="10" as="geometry" />
        </mxCell>
        <mxCell id="XdsVn_3tybLZgV9FLbHw-5" value="+ Create(): ApplicatonDbContext" style="text;html=1;align=left;verticalAlign=middle;resizable=0;points=[];autosize=1;strokeColor=none;" vertex="1" parent="XdsVn_3tybLZgV9FLbHw-2">
          <mxGeometry y="110" width="190" height="20" as="geometry" />
        </mxCell>
      </root>
    </mxGraphModel>
  </diagram>
</mxfile>
